<svg width="26" height="26" viewBox="0 0 26 26" fill="none" xmlns="http://www.w3.org/2000/svg">
<path d="M15.5454 2.81816C15.5454 1.41234 14.4058 0.272705 13 0.272705V0.272705C11.5942 0.272705 10.4545 1.41234 10.4545 2.81816V10.4545H2.81816C1.41234 10.4545 0.272705 11.5942 0.272705 13V13C0.272705 14.4058 1.41234 15.5454 2.81816 15.5454H10.4545V23.1818C10.4545 24.5876 11.5942 25.7273 13 25.7273V25.7273C14.4058 25.7273 15.5454 24.5876 15.5454 23.1818V15.5454H23.1818C24.5876 15.5454 25.7273 14.4058 25.7273 13V13C25.7273 11.5942 24.5876 10.4545 23.1818 10.4545H15.5454V2.81816Z" fill="white"/>
</svg>
