<svg width="27" height="26" viewBox="0 0 27 26" fill="none" xmlns="http://www.w3.org/2000/svg">
<path d="M13.6808 20.0416C15.1766 20.0416 16.3892 18.8291 16.3892 17.3333C16.3892 15.8376 15.1766 14.625 13.6808 14.625C12.1851 14.625 10.9725 15.8376 10.9725 17.3333C10.9725 18.8291 12.1851 20.0416 13.6808 20.0416Z" fill="#293340"/>
<path d="M21.8058 18.4166C23.3016 18.4166 24.5142 17.2041 24.5142 15.7083C24.5142 14.2126 23.3016 13 21.8058 13C20.3101 13 19.0975 14.2126 19.0975 15.7083C19.0975 17.2041 20.3101 18.4166 21.8058 18.4166Z" fill="#293340"/>
<path d="M5.55586 18.4166C7.05162 18.4166 8.26418 17.2041 8.26418 15.7083C8.26418 14.2126 7.05162 13 5.55586 13C4.06009 13 2.84754 14.2126 2.84754 15.7083C2.84754 17.2041 4.06009 18.4166 5.55586 18.4166Z" fill="#293340"/>
<path d="M24.5142 0H2.84753C1.6531 0 0.680847 0.971699 0.680847 2.16668V8.66668C0.680847 9.86162 1.6531 10.8334 2.84753 10.8334H4.67987L5.07129 11.6173C5.25537 11.9844 5.85627 11.9844 6.04035 11.6173L6.43177 10.8334H12.5975L13.2471 11.6998C13.4523 11.9728 13.9094 11.9728 14.1146 11.6998L14.7642 10.8334H20.9299L21.3213 11.6173C21.4134 11.8009 21.6006 11.9167 21.8058 11.9167C22.0111 11.9167 22.1983 11.8009 22.2904 11.6173L22.6818 10.8334H24.5142C25.7086 10.8334 26.6808 9.86167 26.6808 8.66668V2.16668C26.6808 0.971699 25.7086 0 24.5142 0ZM18.5558 7.58332H5.55585C5.25644 7.58332 5.01416 7.34104 5.01416 7.04163C5.01416 6.74228 5.25644 6.5 5.55585 6.5H18.5558C18.8553 6.5 19.0975 6.74228 19.0975 7.04168C19.0975 7.34109 18.8553 7.58332 18.5558 7.58332ZM21.8058 4.33332H5.55585C5.25644 4.33332 5.01416 4.09104 5.01416 3.79163C5.01416 3.49228 5.25644 3.25 5.55585 3.25H21.8058C22.1053 3.25 22.3475 3.49228 22.3475 3.79168C22.3475 4.09109 22.1053 4.33332 21.8058 4.33332Z" fill="#293340"/>
<path d="M25.5107 20.0761C24.6453 19.5661 23.2996 18.9584 21.8058 18.9584C20.312 18.9584 18.9663 19.5662 18.1009 20.0761C17.4856 20.4392 17.0882 21.0996 16.9788 21.8457C16.0749 21.4636 14.9233 21.125 13.6808 21.125C12.4384 21.125 11.2869 21.4636 10.383 21.8456C10.2736 21.0995 9.87606 20.4391 9.26075 20.076C8.39533 19.5661 7.04963 18.9583 5.55585 18.9583C4.06207 18.9583 2.71631 19.5661 1.85095 20.076C1.1294 20.5019 0.680847 21.3286 0.680847 22.2337V22.5807C0.680847 23.2715 1.20135 23.8333 1.8414 23.8333H8.3414C8.29798 24.0174 8.26416 24.2054 8.26416 24.4004V24.7474C8.26416 25.4382 8.81961 26 9.50196 26H17.8597C18.5421 26 19.0975 25.4382 19.0975 24.7474V24.4004C19.0975 24.2054 19.0637 24.0175 19.0202 23.8333H25.5202C26.1603 23.8333 26.6808 23.2715 26.6808 22.5807V22.2337C26.6808 21.3286 26.2323 20.5019 25.5107 20.0761Z" fill="#293340"/>
</svg>
