<svg width="18" height="17" viewBox="0 0 18 17" fill="none" xmlns="http://www.w3.org/2000/svg">
<path fill-rule="evenodd" clip-rule="evenodd" d="M9.00001 13.938C9.96001 13.938 10.842 13.704 11.646 13.236C12.438 12.768 13.068 12.138 13.536 11.346C14.004 10.542 14.238 9.65999 14.238 8.69999C14.238 7.73998 14.004 6.85799 13.536 6.05399C13.068 5.26198 12.438 4.63199 11.646 4.16399C10.842 3.69599 9.96001 3.46199 9.00001 3.46199C8.04 3.46199 7.15801 3.69599 6.35401 4.16399C5.562 4.63199 4.93201 5.26198 4.46401 6.05399C3.996 6.85799 3.76201 7.73998 3.76201 8.69999C3.76201 9.65999 3.996 10.542 4.46401 11.346C4.93201 12.138 5.562 12.768 6.35401 13.236C7.15801 13.704 8.04 13.938 9.00001 13.938ZM15.714 7.96199H17.262V9.43799H15.714C15.606 10.47 15.276 11.421 14.724 12.291C14.172 13.161 13.461 13.872 12.591 14.424C11.721 14.976 10.77 15.306 9.73801 15.414V16.962H8.26201V15.414C7.23 15.306 6.28201 14.976 5.41801 14.424C4.554 13.872 3.84601 13.161 3.29401 12.291C2.742 11.421 2.40601 10.47 2.28601 9.43799H0.738007V7.96199H2.28601C2.40601 6.92998 2.742 5.97899 3.29401 5.10899C3.84601 4.23898 4.554 3.52799 5.41801 2.97599C6.28201 2.42399 7.23 2.09399 8.26201 1.98599V0.437988H9.73801V1.98599C10.77 2.09399 11.721 2.42399 12.591 2.97599C13.461 3.52799 14.172 4.23898 14.724 5.10899C15.276 5.97899 15.606 6.92998 15.714 7.96199Z" fill="#00973F"/>
</svg>
