<svg width="31" height="31" viewBox="0 0 31 31" fill="none" xmlns="http://www.w3.org/2000/svg">
<path d="M15.5 23.8958C17.2834 23.8958 18.7291 22.4501 18.7291 20.6666C18.7291 18.8832 17.2834 17.4375 15.5 17.4375C13.7166 17.4375 12.2709 18.8832 12.2709 20.6666C12.2709 22.4501 13.7166 23.8958 15.5 23.8958Z" fill="white"/>
<path d="M25.1875 21.9583C26.9709 21.9583 28.4166 20.5126 28.4166 18.7291C28.4166 16.9457 26.9709 15.5 25.1875 15.5C23.4041 15.5 21.9584 16.9457 21.9584 18.7291C21.9584 20.5126 23.4041 21.9583 25.1875 21.9583Z" fill="white"/>
<path d="M5.81251 21.9583C7.59592 21.9583 9.04166 20.5126 9.04166 18.7291C9.04166 16.9457 7.59592 15.5 5.81251 15.5C4.0291 15.5 2.58336 16.9457 2.58336 18.7291C2.58336 20.5126 4.0291 21.9583 5.81251 21.9583Z" fill="white"/>
<path d="M28.4166 0H2.58335C1.15923 0 0 1.15856 0 2.58335V10.3334C0 11.7581 1.15923 12.9167 2.58335 12.9167H4.76807L5.23476 13.8514C5.45424 14.2891 6.1707 14.2891 6.39018 13.8514L6.85687 12.9167H14.2083L14.9828 13.9498C15.2275 14.2753 15.7725 14.2753 16.0171 13.9498L16.7916 12.9167H24.1431L24.6098 13.8514C24.7195 14.0703 24.9428 14.2084 25.1875 14.2084C25.4322 14.2084 25.6555 14.0703 25.7652 13.8514L26.2319 12.9167H28.4166C29.8408 12.9167 31 11.7581 31 10.3334V2.58335C31 1.15856 29.8408 0 28.4166 0ZM21.3125 9.04165H5.8125C5.45552 9.04165 5.16665 8.75278 5.16665 8.39579C5.16665 8.03887 5.45552 7.75 5.8125 7.75H21.3125C21.6695 7.75 21.9584 8.03887 21.9584 8.39585C21.9584 8.75284 21.6695 9.04165 21.3125 9.04165ZM25.1875 5.16665H5.8125C5.45552 5.16665 5.16665 4.87778 5.16665 4.52079C5.16665 4.16387 5.45552 3.875 5.8125 3.875H25.1875C25.5445 3.875 25.8334 4.16387 25.8334 4.52085C25.8334 4.87784 25.5445 5.16665 25.1875 5.16665Z" fill="white"/>
<path d="M29.6049 23.9368C28.573 23.3288 26.9685 22.6042 25.1875 22.6042C23.4064 22.6042 21.8019 23.3289 20.7701 23.9368C20.0365 24.3698 19.5626 25.1571 19.4322 26.0468C18.3545 25.5912 16.9814 25.1875 15.5 25.1875C14.0186 25.1875 12.6456 25.5911 11.5679 26.0467C11.4375 25.157 10.9635 24.3697 10.2299 23.9368C9.19804 23.3287 7.59355 22.6041 5.8125 22.6041C4.03145 22.6041 2.4269 23.3288 1.39512 23.9368C0.534811 24.4445 0 25.4303 0 26.5094V26.9231C0 27.7468 0.620605 28.4166 1.38374 28.4166H9.13374C9.08197 28.6362 9.04165 28.8603 9.04165 29.0928V29.5065C9.04165 30.3301 9.70391 31 10.5175 31H20.4825C21.2961 31 21.9583 30.3301 21.9583 29.5065V29.0928C21.9583 28.8603 21.918 28.6362 21.8662 28.4166H29.6162C30.3793 28.4166 30.9999 27.7468 30.9999 26.9231V26.5094C31 25.4303 30.4652 24.4445 29.6049 23.9368Z" fill="white"/>
</svg>
