<svg width="105" height="19" viewBox="0 0 105 19" fill="none" xmlns="http://www.w3.org/2000/svg">
<circle cx="9.5" cy="9.5" r="5.5" fill="url(#paint0_linear_32_41)"/>
<circle cx="30.5" cy="9.5" r="5.5" fill="url(#paint1_linear_32_41)"/>
<circle cx="51.5" cy="9.5" r="5.5" fill="url(#paint2_linear_32_41)"/>
<path fill-rule="evenodd" clip-rule="evenodd" d="M73.5 4C70.4624 4 68 6.46243 68 9.5C68 12.5376 70.4624 15 73.5 15" fill="url(#paint3_linear_32_41)"/>
<circle cx="51.5" cy="9.5" r="9" stroke="url(#paint4_linear_32_41)"/>
<circle cx="73.5" cy="9.5" r="9" stroke="url(#paint5_linear_32_41)"/>
<circle cx="95.5" cy="9.5" r="9" stroke="url(#paint6_linear_32_41)"/>
<circle cx="30.5" cy="9.5" r="9" stroke="url(#paint7_linear_32_41)"/>
<circle cx="9.5" cy="9.5" r="9" stroke="url(#paint8_linear_32_41)"/>
<defs>
<linearGradient id="paint0_linear_32_41" x1="4" y1="4" x2="4" y2="15" gradientUnits="userSpaceOnUse">
<stop stop-color="#40D375"/>
<stop offset="1" stop-color="#1EA896"/>
</linearGradient>
<linearGradient id="paint1_linear_32_41" x1="25" y1="4" x2="25" y2="15" gradientUnits="userSpaceOnUse">
<stop stop-color="#40D375"/>
<stop offset="1" stop-color="#1EA896"/>
</linearGradient>
<linearGradient id="paint2_linear_32_41" x1="46" y1="4" x2="46" y2="15" gradientUnits="userSpaceOnUse">
<stop stop-color="#40D375"/>
<stop offset="1" stop-color="#1EA896"/>
</linearGradient>
<linearGradient id="paint3_linear_32_41" x1="68" y1="4" x2="68" y2="15" gradientUnits="userSpaceOnUse">
<stop stop-color="#40D375"/>
<stop offset="1" stop-color="#1EA896"/>
</linearGradient>
<linearGradient id="paint4_linear_32_41" x1="42" y1="0" x2="42" y2="19" gradientUnits="userSpaceOnUse">
<stop stop-color="#40D375"/>
<stop offset="1" stop-color="#1EA896"/>
</linearGradient>
<linearGradient id="paint5_linear_32_41" x1="64" y1="0" x2="64" y2="19" gradientUnits="userSpaceOnUse">
<stop stop-color="#40D375"/>
<stop offset="1" stop-color="#1EA896"/>
</linearGradient>
<linearGradient id="paint6_linear_32_41" x1="86" y1="0" x2="86" y2="19" gradientUnits="userSpaceOnUse">
<stop stop-color="#40D375"/>
<stop offset="1" stop-color="#1EA896"/>
</linearGradient>
<linearGradient id="paint7_linear_32_41" x1="21" y1="0" x2="21" y2="19" gradientUnits="userSpaceOnUse">
<stop stop-color="#40D375"/>
<stop offset="1" stop-color="#1EA896"/>
</linearGradient>
<linearGradient id="paint8_linear_32_41" x1="0" y1="0" x2="0" y2="19" gradientUnits="userSpaceOnUse">
<stop stop-color="#40D375"/>
<stop offset="1" stop-color="#1EA896"/>
</linearGradient>
</defs>
</svg>
