<svg width="13" height="13" viewBox="0 0 13 13" fill="none" xmlns="http://www.w3.org/2000/svg">
<path fill-rule="evenodd" clip-rule="evenodd" d="M2.43501 3.61501C2.69501 3.61501 2.91501 3.52501 3.09501 3.34501C3.27501 3.16501 3.36501 2.94001 3.36501 2.67001C3.36501 2.40001 3.27501 2.17751 3.09501 2.00251C2.91501 1.82751 2.69501 1.74001 2.43501 1.74001C2.17501 1.74001 1.95251 1.83001 1.76751 2.01001C1.58251 2.19001 1.49001 2.41001 1.49001 2.67001C1.49001 2.93001 1.58001 3.15251 1.76001 3.33751C1.94001 3.52251 2.16501 3.61501 2.43501 3.61501ZM12.395 6.48001C12.625 6.73001 12.74 7.02501 12.74 7.36501C12.74 7.70501 12.625 8.00001 12.395 8.25001L8.00001 12.645C7.75001 12.875 7.45501 12.99 7.11501 12.99C6.77501 12.99 6.48001 12.875 6.23001 12.645L0.60501 7.02001C0.375009 6.77001 0.26001 6.47501 0.26001 6.13501V1.74001C0.26001 1.40001 0.380009 1.11001 0.62001 0.87001C0.860011 0.630009 1.15001 0.51001 1.49001 0.51001H5.88501C6.22501 0.51001 6.52001 0.625009 6.77001 0.85501L12.395 6.48001Z" fill="#F75D34"/>
</svg>
