<svg width="16" height="20" viewBox="0 0 16 20" fill="none" xmlns="http://www.w3.org/2000/svg">
<path fill-rule="evenodd" clip-rule="evenodd" d="M7.84933 10.2301C6.37462 10.2301 5.17468 9.03019 5.17468 7.55519C5.17468 6.08075 6.37462 4.8811 7.84933 4.8811C9.32405 4.8811 10.524 6.08075 10.524 7.55519C10.524 9.03019 9.32405 10.2301 7.84933 10.2301ZM7.84933 9.3855C8.85838 9.3855 9.67936 8.56452 9.67936 7.55519C9.67936 6.54643 8.85838 5.72573 7.84933 5.72573C6.84029 5.72573 6.01931 6.54643 6.01931 7.55519C6.01931 8.56452 6.84029 9.3855 7.84933 9.3855Z" fill="black"/>
<path fill-rule="evenodd" clip-rule="evenodd" d="M2.02398 11.7401C1.13853 10.5106 0.670044 9.0626 0.670044 7.55523C0.670044 3.59674 3.8906 0.376465 7.84937 0.376465C11.8081 0.376465 15.0287 3.59674 15.0287 7.55523C15.0287 9.06288 14.5596 10.5111 13.6725 11.7434L13.4357 12.072L8.64416 18.8363C8.45215 19.0925 8.15737 19.2398 7.84937 19.2398C7.54136 19.2398 7.24687 19.0928 7.06161 18.8459L2.02398 11.7401ZM12.9872 11.2496C13.7702 10.1623 14.1841 8.88467 14.1841 7.55523C14.1841 4.0627 11.3425 1.22109 7.84937 1.22109C4.35627 1.22109 1.51467 4.0627 1.51467 7.55523C1.51467 8.88467 1.92826 10.1617 2.71066 11.2479L2.88888 11.4982L7.74379 18.3481C7.78292 18.3999 7.90877 18.4092 7.96198 18.3389L12.9872 11.2496Z" fill="black"/>
</svg>
