<svg width="23" height="26" viewBox="0 0 23 26" fill="none" xmlns="http://www.w3.org/2000/svg">
<path d="M7.04793 0C6.6272 0 6.2861 0.341097 6.2861 0.76183V1.52366C6.2861 2.36518 6.96825 3.04732 7.80976 3.04732H10.8571C11.6986 3.04732 12.3807 2.36518 12.3807 1.52366V0.76183C12.3807 0.341097 12.0395 0 11.6189 0H7.04793Z" fill="#293340"/>
<path d="M10.654 18.6823C9.6867 17.7159 9.02319 16.5025 8.73314 15.173C8.56564 14.4112 8.79556 13.6241 9.34971 13.0697C9.88909 12.5324 10.6799 12.29 11.4441 12.4508C12.7825 12.7424 13.9966 13.4067 14.963 14.3733L17.7135 17.1237V2.28551C17.7135 1.86432 17.3728 1.52368 16.9517 1.52368H13.9044C13.9044 3.20423 12.5377 4.571 10.8571 4.571H7.80975C6.1291 4.571 4.76243 3.20423 4.76243 1.52368H1.71511C1.29392 1.52368 0.953278 1.86432 0.953278 2.28551V23.7183C0.953278 24.1394 1.29392 24.4802 1.71511 24.4802H16.4518L10.654 18.6823ZM4.76243 6.14545H13.9044C14.3255 6.14545 14.6662 6.48609 14.6662 6.90728C14.6662 7.32837 14.3255 7.66911 13.9044 7.66911H4.76243C4.34124 7.66911 4.0006 7.32837 4.0006 6.90728C4.0006 6.48609 4.34124 6.14545 4.76243 6.14545ZM4.76243 9.19277H13.9044C14.3255 9.19277 14.6662 9.53341 14.6662 9.9546C14.6662 10.3757 14.3255 10.7164 13.9044 10.7164H4.76243C4.34124 10.7164 4.0006 10.3757 4.0006 9.9546C4.0006 9.53341 4.34124 9.19277 4.76243 9.19277ZM7.80975 19.9092H4.76243C4.34124 19.9092 4.0006 19.5684 4.0006 19.1474C4.0006 18.7262 4.34124 18.3855 4.76243 18.3855H7.80975C8.23084 18.3855 8.57158 18.7262 8.57158 19.1474C8.57158 19.5684 8.23084 19.9092 7.80975 19.9092Z" fill="#293340"/>
<path d="M21.8355 25.5518C22.4267 24.9591 22.4321 23.9983 21.8341 23.3987L14.6624 16.227C13.9646 16.912 13.2015 17.6632 12.493 18.3667L19.681 25.5547C20.2707 26.143 21.2311 26.1547 21.8355 25.5518Z" fill="#293340"/>
<path d="M10.4271 14.147C10.2433 14.3308 10.1659 14.5949 10.2217 14.8486C10.4175 15.7463 10.8426 16.5687 11.4378 17.2669C12.1322 16.5776 12.8787 15.8426 13.5632 15.1706C12.8617 14.5684 12.0336 14.139 11.1278 13.9417C10.8787 13.8888 10.6108 13.9639 10.4271 14.147Z" fill="#293340"/>
</svg>
