<svg width="31" height="31" viewBox="0 0 31 31" fill="none" xmlns="http://www.w3.org/2000/svg">
<path d="M4.60156 14.5312C5.33427 14.5312 5.99745 14.2373 6.4875 13.7652L9.17593 15.1093C9.16245 15.2188 9.14258 15.3264 9.14258 15.4395C9.14258 16.9418 10.3649 18.1641 11.8672 18.1641C13.3695 18.1641 14.5918 16.9418 14.5918 15.4395C14.5918 15.0201 14.4887 14.6275 14.3186 14.2723L17.9656 10.6253C18.3209 10.7953 18.7135 10.8984 19.1328 10.8984C20.6351 10.8984 21.8574 9.67615 21.8574 8.17383C21.8574 7.89096 21.8018 7.62347 21.7214 7.36685L24.8902 4.99086C25.3225 5.27964 25.8407 5.44922 26.3984 5.44922C27.9008 5.44922 29.123 4.22693 29.123 2.72461C29.123 1.22229 27.9008 0 26.3984 0C24.8961 0 23.6738 1.22229 23.6738 2.72461C23.6738 3.00748 23.7294 3.27497 23.8098 3.53159L20.641 5.90758C20.2087 5.6188 19.6905 5.44922 19.1328 5.44922C17.6305 5.44922 16.4082 6.67151 16.4082 8.17383C16.4082 8.59316 16.5113 8.98577 16.6814 9.34101L13.0344 12.988C12.6791 12.818 12.2865 12.7148 11.8672 12.7148C11.1345 12.7148 10.4713 13.0088 9.98125 13.4809L7.29282 12.1368C7.3063 12.0273 7.32617 11.9197 7.32617 11.8066C7.32617 10.3043 6.10388 9.08203 4.60156 9.08203C3.09924 9.08203 1.87695 10.3043 1.87695 11.8066C1.87695 13.309 3.09924 14.5312 4.60156 14.5312Z" fill="white"/>
<path d="M30.0918 29.1836H29.123V9.99023C29.123 9.48836 28.7167 9.08203 28.2148 9.08203H24.582C24.0802 9.08203 23.6738 9.48836 23.6738 9.99023V29.1836H21.8574V15.4395C21.8574 14.9376 21.4511 14.5312 20.9492 14.5312H17.3164C16.8145 14.5312 16.4082 14.9376 16.4082 15.4395V29.1836H14.5918V22.7051C14.5918 22.2032 14.1855 21.7969 13.6836 21.7969H10.0508C9.5489 21.7969 9.14258 22.2032 9.14258 22.7051V29.1836H7.32617V19.0723C7.32617 18.5704 6.91985 18.1641 6.41797 18.1641H2.78516C2.28328 18.1641 1.87695 18.5704 1.87695 19.0723V29.1836H0.908203C0.406326 29.1836 0 29.5899 0 30.0918C0 30.5937 0.406326 31 0.908203 31H30.0918C30.5937 31 31 30.5937 31 30.0918C31 29.5899 30.5937 29.1836 30.0918 29.1836Z" fill="white"/>
</svg>
