<svg width="26" height="26" viewBox="0 0 26 26" fill="none" xmlns="http://www.w3.org/2000/svg">
<g clip-path="url(#clip0_65_765)">
<path d="M4.06573 12.1875C4.64874 12.1875 5.17643 11.9409 5.56637 11.545L7.70554 12.6723C7.69482 12.7641 7.67901 12.8544 7.67901 12.9492C7.67901 14.2092 8.65158 15.2344 9.84698 15.2344C11.0424 15.2344 12.0149 14.2092 12.0149 12.9492C12.0149 12.5975 11.9329 12.2682 11.7976 11.9703L14.6995 8.91151C14.9822 9.05414 15.2946 9.14062 15.6282 9.14062C16.8236 9.14062 17.7962 8.11548 17.7962 6.85547C17.7962 6.61823 17.752 6.39388 17.688 6.17865L20.2094 4.18588C20.5534 4.42809 20.9657 4.57031 21.4095 4.57031C22.6049 4.57031 23.5774 3.54517 23.5774 2.28516C23.5774 1.02515 22.6049 0 21.4095 0C20.2141 0 19.2415 1.02515 19.2415 2.28516C19.2415 2.5224 19.2857 2.74675 19.3497 2.96198L16.8283 4.95474C16.4843 4.71254 16.072 4.57031 15.6282 4.57031C14.4328 4.57031 13.4603 5.59546 13.4603 6.85547C13.4603 7.20717 13.5423 7.53645 13.6776 7.8344L10.7757 10.8932C10.493 10.7505 10.1806 10.6641 9.84698 10.6641C9.26396 10.6641 8.73627 10.9106 8.34634 11.3066L6.20716 10.1793C6.21789 10.0874 6.2337 9.99716 6.2337 9.90234C6.2337 8.64233 5.26112 7.61719 4.06573 7.61719C2.87033 7.61719 1.89776 8.64233 1.89776 9.90234C1.89776 11.1624 2.87033 12.1875 4.06573 12.1875Z" fill="#293340"/>
<path d="M24.3483 24.4766H23.5774V8.37891C23.5774 7.95798 23.2541 7.61719 22.8548 7.61719H19.9642C19.5648 7.61719 19.2415 7.95798 19.2415 8.37891V24.4766H17.7962V12.9492C17.7962 12.5283 17.4729 12.1875 17.0735 12.1875H14.1829C13.7836 12.1875 13.4603 12.5283 13.4603 12.9492V24.4766H12.0149V19.043C12.0149 18.622 11.6916 18.2812 11.2923 18.2812H8.40166C8.00232 18.2812 7.67901 18.622 7.67901 19.043V24.4766H6.23369V15.9961C6.23369 15.5752 5.91038 15.2344 5.51104 15.2344H2.62041C2.22107 15.2344 1.89776 15.5752 1.89776 15.9961V24.4766H1.12692C0.72758 24.4766 0.404266 24.8174 0.404266 25.2383C0.404266 25.6592 0.72758 26 1.12692 26H24.3483C24.7476 26 25.0709 25.6592 25.0709 25.2383C25.0709 24.8174 24.7476 24.4766 24.3483 24.4766Z" fill="#293340"/>
</g>
<defs>
<clipPath id="clip0_65_765">
<rect width="24.6667" height="26" fill="white" transform="translate(0.404266)"/>
</clipPath>
</defs>
</svg>
