<svg width="13" height="13" viewBox="0 0 13 13" fill="none" xmlns="http://www.w3.org/2000/svg">
<path fill-rule="evenodd" clip-rule="evenodd" d="M2.4375 5.91502C2.93584 6.86836 3.56958 7.7296 4.33875 8.49877C5.10792 9.26795 5.96916 9.90169 6.9225 10.4L8.4175 8.90502C8.50417 8.80752 8.6125 8.74253 8.7425 8.71002C8.8725 8.67752 8.99708 8.68836 9.11625 8.74252C9.83125 8.99169 10.6329 9.11627 11.5212 9.11627C11.7054 9.11627 11.8625 9.18127 11.9925 9.31127C12.1225 9.44128 12.1875 9.59836 12.1875 9.78252V12.1713C12.1875 12.3554 12.1225 12.5125 11.9925 12.6425C11.8625 12.7725 11.7054 12.8375 11.5212 12.8375C9.96124 12.8375 8.46626 12.5342 7.03625 11.9275C5.66041 11.3425 4.44167 10.5192 3.38 9.45752C2.31833 8.39585 1.495 7.17711 0.91 5.80127C0.30333 4.37127 0 2.87628 0 1.31627C0 1.13211 0.0649993 0.975025 0.195 0.845024C0.325001 0.715024 0.482082 0.650024 0.66625 0.650024H3.055C3.23917 0.650024 3.39625 0.715024 3.52625 0.845024C3.65625 0.975025 3.72125 1.13211 3.72125 1.31627C3.72125 2.20461 3.84583 3.00627 4.095 3.72127C4.1275 3.84044 4.13292 3.96502 4.11125 4.09502C4.08958 4.22502 4.03 4.33336 3.9325 4.42002L2.4375 5.91502Z" fill="white"/>
</svg>
