<svg width="26" height="21" viewBox="0 0 26 21" fill="none" xmlns="http://www.w3.org/2000/svg">
<path d="M22.3058 3.58011V3.5677C22.5221 3.48317 22.6928 3.30402 22.8645 3.17141C23.6401 2.57387 24.1445 1.78711 24.5164 0.781258C24.3058 0.89681 24.0945 1.01236 23.8832 1.12791C23.2314 1.45867 22.1255 1.93407 21.2743 2.00697C20.2716 1.0934 19.2223 0.374886 17.2502 0.409396C17.0431 0.434213 16.836 0.459029 16.629 0.483846C16.2269 0.571867 15.8438 0.680828 15.4983 0.830503C14.0543 1.45712 13.0697 2.62622 12.6168 4.24822C12.4365 4.89345 12.3632 5.97181 12.592 6.63837C11.7773 6.6372 10.9886 6.50885 10.3066 6.34095C7.61822 5.67982 5.94387 4.78643 4.08495 3.33233C3.53899 2.9054 3.00349 2.42148 2.56959 1.88366C2.42961 1.71033 2.20897 1.55833 2.11009 1.35088C2.10156 1.347 2.09342 1.34273 2.08528 1.33847C1.8693 1.73864 1.6665 2.17215 1.53892 2.66344C1.03484 4.59991 1.83168 6.22618 2.68165 7.28243C2.93912 7.60272 3.35674 7.80126 3.61305 8.09983H3.63787C3.44515 8.17118 3.11013 8.0723 2.94223 8.03779C2.54516 7.95597 2.20665 7.88075 1.87395 7.74077C1.70023 7.65817 1.52613 7.57558 1.35241 7.49299C1.34427 9.63226 2.42496 11.0228 3.74954 11.8518C4.18151 12.1221 4.78564 12.4862 5.41381 12.5203C5.07762 12.8041 3.63981 12.6738 3.14076 12.6196C3.76466 14.2257 4.72321 15.2951 6.37002 15.876C6.79501 16.026 7.31344 16.1586 7.88539 16.1486C7.58177 16.5092 6.93382 16.8031 6.50651 17.0524C5.62552 17.5678 4.60261 17.902 3.45097 18.1548C2.98915 18.2556 2.49824 18.2351 1.99764 18.3154C1.44431 18.4045 0.865387 18.2684 0.370605 18.2533C0.519505 18.3441 0.668793 18.4356 0.817692 18.5259C1.27176 18.8024 1.74599 19.0447 2.25861 19.2689C3.18109 19.6725 4.16406 19.9769 5.25211 20.2472C7.44605 20.7916 10.5412 20.5469 12.4563 19.9502C17.7895 18.2878 21.1584 14.4079 22.4302 8.69349C22.6489 7.71052 22.6807 6.59416 22.6664 5.42429C22.9316 5.21374 23.1965 5.00318 23.4613 4.79263C24.1178 4.26683 24.7331 3.53396 25.1876 2.81118V2.79877C24.3221 3.0702 23.4109 3.56847 22.3058 3.58011Z" fill="white"/>
</svg>
