<svg width="34" height="34" viewBox="0 0 34 34" fill="none" xmlns="http://www.w3.org/2000/svg">
<g clip-path="url(#clip0_5:24)">
<path d="M11.025 0C10.4749 0 10.0288 0.44605 10.0288 0.99624V1.99248C10.0288 3.09293 10.9208 3.98496 12.0213 3.98496H16.0062C17.1067 3.98496 17.9987 3.09293 17.9987 1.99248V0.99624C17.9987 0.44605 17.5525 0 17.0025 0H11.025Z" fill="white"/>
<path d="M15.7406 24.4306C14.4758 23.1668 13.6081 21.5802 13.2288 19.8416C13.0098 18.8454 13.3104 17.816 14.0351 17.0911C14.7404 16.3884 15.7745 16.0714 16.7739 16.2818C18.5241 16.6631 20.1117 17.5318 21.3755 18.7957L24.9724 22.3925V2.98867C24.9724 2.43788 24.5268 1.99243 23.9762 1.99243H19.9912C19.9912 4.19007 18.204 5.97739 16.0062 5.97739H12.0213C9.82352 5.97739 8.03633 4.19007 8.03633 1.99243H4.05137C3.50058 1.99243 3.05513 2.43788 3.05513 2.98867V31.0162C3.05513 31.5669 3.50058 32.0125 4.05137 32.0125H23.3224L15.7406 24.4306ZM8.03633 8.03629H19.9912C20.5419 8.03629 20.9874 8.48174 20.9874 9.03253C20.9874 9.58318 20.5419 10.0288 19.9912 10.0288H8.03633C7.48554 10.0288 7.04009 9.58318 7.04009 9.03253C7.04009 8.48174 7.48554 8.03629 8.03633 8.03629ZM8.03633 12.0212H19.9912C20.5419 12.0212 20.9874 12.4667 20.9874 13.0175C20.9874 13.5681 20.5419 14.0137 19.9912 14.0137H8.03633C7.48554 14.0137 7.04009 13.5681 7.04009 13.0175C7.04009 12.4667 7.48554 12.0212 8.03633 12.0212ZM12.0213 26.035H8.03633C7.48554 26.035 7.04009 25.5894 7.04009 25.0388C7.04009 24.488 7.48554 24.0425 8.03633 24.0425H12.0213C12.5719 24.0425 13.0175 24.488 13.0175 25.0388C13.0175 25.5894 12.5719 26.035 12.0213 26.035Z" fill="white"/>
<path d="M30.3626 33.4139C31.1357 32.6389 31.1429 31.3824 30.3608 30.5984L20.9825 21.22C20.0699 22.1158 19.0721 23.0981 18.1455 24.018L27.5452 33.4177C28.3164 34.187 29.5723 34.2024 30.3626 33.4139Z" fill="white"/>
<path d="M15.4439 18.4999C15.2036 18.7402 15.1024 19.0856 15.1754 19.4173C15.4313 20.5912 15.9872 21.6668 16.7657 22.5797C17.6737 21.6783 18.6499 20.7172 19.545 19.8385C18.6277 19.0509 17.5448 18.4894 16.3602 18.2314C16.0345 18.1622 15.6842 18.2605 15.4439 18.4999Z" fill="white"/>
</g>
<defs>
<clipPath id="clip0_5:24">
<rect width="34" height="34" fill="white"/>
</clipPath>
</defs>
</svg>
